<svg width="21" height="21" viewBox="0 0 21 21" fill="none" xmlns="http://www.w3.org/2000/svg">
<path fill-rule="evenodd" clip-rule="evenodd" d="M10.1538 0.135383C7.58148 0.135383 7.17533 0.135384 6.09226 0.203075C5.00919 0.270767 4.19689 0.406151 3.58766 0.676919C2.91075 0.947686 2.30152 1.28614 1.75999 1.89537C1.15076 2.5046 0.812302 3.04613 0.541534 3.72305C0.270767 4.39997 0.135383 5.14458 0.0676914 6.22764C-3.88344e-07 7.31071 0 7.71686 0 10.4922C0 13.3353 -3.88344e-07 13.6737 0.0676914 14.7568C0.135383 15.8399 0.270767 16.6522 0.541534 17.2614C0.812302 17.9383 1.15076 18.5476 1.75999 19.0891C2.36921 19.6983 2.91075 20.0368 3.58766 20.3075C4.26458 20.5783 5.00919 20.7137 6.09226 20.7814C7.17533 20.8491 7.58148 20.8491 10.3568 20.8491C13.1999 20.8491 13.5384 20.8491 14.6214 20.7814C15.7045 20.7137 16.5168 20.5783 17.126 20.3075C17.8029 20.0368 18.4122 19.6983 18.9537 19.0891C19.5629 18.4799 19.9014 17.9383 20.1722 17.2614C20.4429 16.5845 20.5783 15.8399 20.646 14.7568C20.7137 13.6737 20.7137 13.3353 20.7137 10.6953V10.1538C20.7137 7.58148 20.7137 7.17533 20.646 6.09226C20.5783 5.00919 20.4429 4.19689 20.1722 3.58766C19.9014 2.91075 19.5629 2.30152 18.9537 1.75999C18.3445 1.15076 17.8029 0.812302 17.126 0.541534C16.4491 0.270767 15.7045 0.135384 14.6214 0.067692C13.5384 2.57215e-07 13.1999 0 10.5599 0H10.1538V0.135383ZM17.2614 4.9415C17.2614 5.61842 16.7199 6.15995 16.043 6.15995C15.366 6.15995 14.8245 5.61842 14.8245 4.9415C14.8245 4.26458 15.366 3.72305 16.043 3.72305C16.6522 3.72305 17.2614 4.26458 17.2614 4.9415ZM10.4245 13.9445C8.52917 13.9445 6.97225 12.3876 6.97225 10.4922C6.97225 8.59686 8.52917 7.03995 10.4245 7.03995C12.3199 7.03995 13.8768 8.59686 13.8768 10.4922C13.8768 12.3876 12.3199 13.9445 10.4245 13.9445ZM10.4245 5.14458C13.403 5.14458 15.7722 7.51379 15.7722 10.4922C15.7722 13.4707 13.403 15.8399 10.4245 15.8399C7.4461 15.8399 5.07688 13.4707 5.07688 10.4922C5.07688 7.51379 7.51379 5.14458 10.4245 5.14458ZM10.4245 1.96306C13.1999 1.96306 13.5384 1.96306 14.6214 2.03075C15.6368 2.09845 16.1783 2.23383 16.5845 2.36921C17.0583 2.57229 17.3968 2.77536 17.8029 3.11382C18.1414 3.45228 18.4122 3.79074 18.5476 4.33227C18.6829 4.67073 18.886 5.27996 18.886 6.29534C18.9537 7.3784 18.9537 7.71686 18.9537 10.4922C18.9537 13.2676 18.9537 13.606 18.886 14.6891C18.8183 15.7045 18.6829 16.246 18.5476 16.6522C18.3445 17.126 18.1414 17.4645 17.8029 17.8706C17.4645 18.2091 17.126 18.4799 16.5845 18.6152C16.246 18.7506 15.6368 18.9537 14.6214 18.9537C13.5384 19.0214 13.1999 19.0214 10.4245 19.0214C7.64917 19.0214 7.31071 19.0214 6.22764 18.9537C5.21227 18.886 4.67073 18.7506 4.26458 18.6152C3.79074 18.4122 3.45228 18.2091 3.04613 17.8706C2.70767 17.5322 2.4369 17.1937 2.30152 16.6522C2.16614 16.3137 1.96306 15.7045 1.96306 14.6891C1.89537 13.606 1.89537 13.2676 1.89537 10.4922C1.89537 7.71686 1.89537 7.3784 1.96306 6.29534C2.03075 5.27996 2.16614 4.73843 2.30152 4.33227C2.5046 3.85843 2.70767 3.51997 3.04613 3.11382C3.38459 2.77536 3.72305 2.5046 4.26458 2.36921C4.60304 2.23383 5.21227 2.03075 6.22764 2.03075C7.31071 1.96306 7.64917 1.96306 10.4245 1.96306Z" fill="#0BE04F"/>
</svg>
