<svg width="25" height="25" viewBox="0 0 25 25" fill="none" xmlns="http://www.w3.org/2000/svg">
<path d="M5.93332 22.578C5.93332 22.1599 6.07269 21.707 5.89847 21.3934C5.72426 21.1146 5.23646 21.0101 4.88804 20.8359C3.04138 19.8603 1.61283 18.4666 0.881134 16.5154C0.567551 15.7489 0.463023 14.8778 0.323652 14.0416C0.184281 13.2054 0.149439 12.3691 0.114596 11.5329C0.0449108 9.7211 0.253967 7.90928 0.637236 6.1323C0.846291 5.12187 1.36893 4.2508 1.9961 3.48426C2.97169 2.26477 4.15634 1.25434 5.65458 0.766538C6.52564 0.487797 7.43155 0.348427 8.33746 0.243899C9.55695 0.104528 10.8113 0 12.0308 0C13.2503 0 14.4698 0.104528 15.6893 0.209056C16.4906 0.278741 17.292 0.418112 18.0934 0.592325C19.4871 0.905909 20.6369 1.70729 21.6473 2.68288C22.6229 3.62363 23.4243 4.7386 23.7031 6.09746C24.1212 8.08349 24.3651 10.0695 24.1909 12.0904C24.0863 13.3099 23.947 14.4945 23.7379 15.714C23.494 17.1077 22.7275 18.1879 21.7519 19.1635C20.7414 20.2087 19.5916 21.045 18.1282 21.3585C17.0133 21.6024 15.8635 21.707 14.7485 21.8463C14.1562 21.916 13.529 21.9509 12.9018 21.9509C12.205 21.9509 11.4733 21.916 10.7764 21.916C10.6022 21.916 10.3583 22.0205 10.219 22.1599C9.41758 22.9613 8.68588 23.7627 7.91935 24.5641C7.36186 25.1215 6.59533 25.1564 6.17721 24.5989C6.003 24.355 5.93332 24.0066 5.89847 23.7278C5.89847 23.3097 5.93332 22.9613 5.93332 22.578ZM6.90891 21.4979C6.90891 21.8463 6.90891 22.1948 6.90891 22.5432C6.90891 22.8916 6.90891 23.24 6.90891 23.5885C6.90891 23.693 6.9786 23.8324 7.04828 23.8672C7.11797 23.902 7.25734 23.7975 7.32702 23.7278C7.39671 23.693 7.43155 23.6233 7.50123 23.5536C8.68588 22.3341 9.83569 21.1495 11.0203 19.9648C11.1597 19.8255 11.3688 19.7209 11.5778 19.7209C13.2503 19.7209 14.9227 19.5816 16.5952 19.3725C17.5708 19.2331 18.4767 18.9892 19.278 18.3621C20.3233 17.5258 21.2989 16.6199 21.5428 15.2611C21.7867 13.9719 21.9261 12.6479 21.9958 11.3239C22.0306 10.2437 21.8912 9.12877 21.7867 8.04865C21.6822 6.89884 21.4034 5.78388 20.5672 4.84313C19.731 3.90238 18.7902 3.03131 17.5011 2.78741C16.2467 2.54351 14.9924 2.40414 13.7032 2.33446C11.6127 2.22993 9.48726 2.29961 7.43155 2.68288C5.20162 3.06615 3.66854 4.35533 2.90201 6.44589C2.55358 7.38664 2.4839 8.43192 2.41421 9.44235C2.34452 10.7315 2.37937 12.0556 2.48389 13.3447C2.51874 14.1113 2.62327 14.9126 2.90201 15.6443C3.52917 17.3516 4.78351 18.4666 6.45596 19.1286C6.76954 19.268 6.90891 19.4073 6.90891 19.7558C6.87407 20.2784 6.90891 20.9056 6.90891 21.4979Z" fill="#0BE04F"/>
<path d="M13.1457 14.0763C13.2851 14.0066 13.4593 13.9369 13.5987 13.8324C13.7729 13.693 13.8774 13.484 14.0516 13.3446C14.4001 12.9962 14.8182 12.8568 15.2363 13.1007C16.0028 13.6233 16.7694 14.146 17.501 14.7383C17.7798 14.9474 17.8843 15.2609 17.7101 15.6094C17.3268 16.4804 16.7694 17.1773 15.7938 17.456C15.6544 17.4909 15.515 17.4909 15.3756 17.456C12.1353 16.3062 9.41756 14.4944 7.60574 11.4979C6.97857 10.4875 6.52562 9.37254 6.00298 8.29242C5.72424 7.76978 5.82876 7.28198 6.14235 6.79419C6.52562 6.2367 7.01341 5.81859 7.60574 5.53985C7.95417 5.36564 8.33743 5.40048 8.58133 5.71406C9.13881 6.41092 9.66145 7.14261 10.1493 7.90915C10.4977 8.46663 10.3235 8.91959 9.83567 9.3377C9.73114 9.40738 9.66145 9.47707 9.55693 9.54675C9.24334 9.79065 9.17366 10.1042 9.31303 10.4527C9.90535 12.0903 10.9855 13.3098 12.6579 13.9369C12.7973 14.0066 12.9367 14.0066 13.1457 14.0763Z" fill="#0BE04F"/>
<path d="M18.1633 10.8709C18.1633 10.9754 18.233 11.1148 18.1981 11.2193C18.1284 11.3587 18.0239 11.5677 17.8845 11.6026C17.78 11.6374 17.5361 11.4284 17.5013 11.3239C17.3967 10.9754 17.3967 10.627 17.3619 10.2786C17.2225 8.22286 15.6546 6.27167 13.6686 5.78387C13.2505 5.67935 12.7975 5.6445 12.3446 5.57482C12.24 5.57482 12.1703 5.53998 12.0658 5.53998C11.8219 5.50513 11.6477 5.43545 11.6477 5.15671C11.6825 4.84312 11.9264 4.77344 12.1703 4.77344C14.8532 4.87797 17.1528 6.41104 17.9194 9.16361C18.0588 9.72109 18.1284 10.3134 18.1981 10.8709C18.1981 10.8361 18.1981 10.8709 18.1633 10.8709Z" fill="#0BE04F"/>
<path d="M16.6648 10.4876C16.63 10.5573 16.6648 10.6966 16.5951 10.7663C16.4906 10.8709 16.3512 11.0102 16.2119 11.0102C16.1073 11.0102 15.9331 10.836 15.9331 10.7315C15.8286 10.3482 15.8286 9.89526 15.7241 9.51199C15.3757 8.18797 14.2607 7.28206 12.867 7.14269C12.7276 7.14269 12.6231 7.10785 12.4837 7.073C12.2747 7.03816 12.1353 6.89879 12.1701 6.68973C12.205 6.44584 12.3792 6.34131 12.5882 6.34131C14.644 6.48068 16.3861 7.76986 16.63 10.0346C16.63 10.1392 16.6648 10.3134 16.6648 10.4876Z" fill="#0BE04F"/>
<path d="M13.0761 7.90918C14.2608 7.94402 15.1667 8.95446 15.097 10.0694C15.097 10.3133 14.9925 10.5224 14.7486 10.4875C14.6092 10.4527 14.4698 10.2785 14.3304 10.1391C14.2956 10.1043 14.3304 10.0346 14.3304 9.99974C14.1562 9.09383 13.9123 8.84993 12.9716 8.67572C12.7277 8.64088 12.5535 8.5015 12.5535 8.25761C12.5883 8.01371 12.7625 7.90918 13.0064 7.90918C13.0761 7.90918 13.1109 7.90918 13.0761 7.90918Z" fill="white"/>
</svg>
