<svg width="29" height="31" viewBox="0 0 29 31" fill="none" xmlns="http://www.w3.org/2000/svg">
<path d="M6.9984 27.5606C6.9984 27.068 7.16564 26.5345 6.95659 26.1651C6.74753 25.8367 6.16218 25.7136 5.74406 25.5083C3.52807 24.3591 1.81381 22.7173 0.935779 20.4189C0.559479 19.5159 0.434045 18.4898 0.2668 17.5047C0.0995557 16.5196 0.0577444 15.5346 0.0159332 14.5495C-0.0676891 12.4152 0.183178 10.2809 0.643101 8.18766C0.893968 6.99738 1.52114 5.97127 2.27374 5.0683C3.44445 3.63175 4.86603 2.44146 6.66391 1.86684C7.70919 1.53849 8.79628 1.37431 9.88337 1.25118C11.3468 1.087 12.852 0.963867 14.3154 0.963867C15.7787 0.963867 17.2421 1.087 18.7055 1.21013C19.6672 1.29222 20.6288 1.4564 21.5905 1.66162C23.2629 2.03102 24.6427 2.97504 25.8552 4.12428C27.026 5.23247 27.9876 6.54589 28.3221 8.14662C28.8238 10.4861 29.1165 12.8257 28.9075 15.2062C28.782 16.6428 28.6148 18.0383 28.3639 19.4748C28.0712 21.1166 27.1514 22.389 25.9807 23.5382C24.7682 24.7696 23.3884 25.7546 21.6323 26.124C20.2944 26.4113 18.9146 26.5345 17.5766 26.6986C16.8658 26.7807 16.1132 26.8218 15.3606 26.8218C14.5244 26.8218 13.6464 26.7807 12.8102 26.7807C12.6011 26.7807 12.3084 26.9039 12.1412 27.068C11.1795 28.012 10.3015 28.9561 9.38164 29.9001C8.71266 30.5568 7.79281 30.5978 7.29108 29.9411C7.08202 29.6538 6.9984 29.2434 6.95659 28.915C6.95659 28.4225 6.9984 28.012 6.9984 27.5606ZM8.16911 26.2882C8.16911 26.6986 8.16911 27.1091 8.16911 27.5195C8.16911 27.93 8.16911 28.3404 8.16911 28.7508C8.16911 28.874 8.25274 29.0382 8.33636 29.0792C8.41998 29.1202 8.58722 28.9971 8.67085 28.915C8.75447 28.874 8.79628 28.7919 8.8799 28.7098C10.3015 27.2733 11.6813 25.8777 13.1028 24.4822C13.2701 24.3181 13.5209 24.1949 13.7718 24.1949C15.7787 24.1949 17.7857 24.0308 19.7926 23.7845C20.9633 23.6203 22.0504 23.333 23.0121 22.5942C24.2664 21.6091 25.4371 20.542 25.7298 18.9413C26.0225 17.4226 26.1897 15.8629 26.2734 14.3033C26.3152 13.0309 26.1479 11.7175 26.0225 10.4451C25.8971 9.09064 25.5626 7.77722 24.5591 6.66902C23.5556 5.56083 22.4267 4.53472 20.8797 4.24741C19.3745 3.9601 17.8693 3.79592 16.3223 3.71383C13.8136 3.5907 11.2631 3.67279 8.79628 4.12428C6.12036 4.57576 4.28067 6.0944 3.36083 8.55706C2.94272 9.66525 2.85909 10.8966 2.77547 12.0869C2.69185 13.6055 2.73366 15.1652 2.85909 16.6838C2.9009 17.5868 3.02634 18.5308 3.36083 19.3927C4.11343 21.4039 5.61863 22.7173 7.62557 23.4972C8.00187 23.6614 8.16911 23.8255 8.16911 24.236C8.1273 24.8516 8.16911 25.5904 8.16911 26.2882Z" fill="white"/>
<path d="M15.653 17.5459C15.8202 17.4638 16.0293 17.3817 16.1965 17.2586C16.4056 17.0944 16.531 16.8482 16.7401 16.684C17.1582 16.2735 17.6599 16.1094 18.1616 16.3967C19.0815 17.0123 20.0013 17.628 20.8794 18.3257C21.2138 18.572 21.3393 18.9414 21.1302 19.3519C20.6703 20.378 20.0013 21.1988 18.8306 21.5272C18.6634 21.5682 18.4961 21.5682 18.3289 21.5272C14.4404 20.1727 11.1792 18.0384 9.00501 14.5086C8.25241 13.3183 7.70886 12.0049 7.0817 10.7326C6.74721 10.1169 6.87264 9.54227 7.24894 8.96765C7.70886 8.31094 8.29422 7.81841 9.00501 7.49006C9.42312 7.28484 9.88304 7.32588 10.1757 7.69528C10.8447 8.51616 11.4719 9.37809 12.0572 10.2811C12.4753 10.9378 12.2663 11.4714 11.6809 11.9639C11.5555 12.046 11.4719 12.1281 11.3464 12.2101C10.9701 12.4975 10.8865 12.8669 11.0538 13.2773C11.7645 15.2064 13.0607 16.6429 15.0676 17.3817C15.2349 17.4638 15.4021 17.4638 15.653 17.5459Z" fill="white"/>
<path d="M21.6746 13.7697C21.6746 13.8928 21.7583 14.057 21.7164 14.1801C21.6328 14.3443 21.5074 14.5905 21.3401 14.6316C21.2147 14.6726 20.922 14.4264 20.8802 14.3032C20.7548 13.8928 20.7548 13.4823 20.713 13.0719C20.5457 10.6503 18.6642 8.35182 16.281 7.7772C15.7793 7.65407 15.2357 7.61302 14.6922 7.53093C14.5667 7.53093 14.4831 7.48989 14.3577 7.48989C14.065 7.44884 13.856 7.36675 13.856 7.0384C13.8978 6.669 14.1904 6.58691 14.4831 6.58691C17.7026 6.71005 20.4621 8.51599 21.382 11.7585C21.5492 12.4152 21.6328 13.1129 21.7164 13.7697C21.7164 13.7286 21.7164 13.7697 21.6746 13.7697Z" fill="white"/>
<path d="M19.8761 13.3183C19.8343 13.4004 19.8761 13.5646 19.7925 13.6467C19.667 13.7698 19.4998 13.934 19.3326 13.934C19.2071 13.934 18.9981 13.7288 18.9981 13.6057C18.8726 13.1542 18.8726 12.6206 18.7472 12.1691C18.3291 10.6094 16.9911 9.54228 15.3187 9.3781C15.1515 9.3781 15.026 9.33706 14.8588 9.29601C14.6079 9.25497 14.4407 9.09079 14.4825 8.84452C14.5243 8.55721 14.7333 8.43408 14.9842 8.43408C17.4511 8.59826 19.5416 10.1169 19.8343 12.7848C19.8343 12.9079 19.8761 13.1131 19.8761 13.3183Z" fill="white"/>
<path d="M15.5695 10.2808C16.9911 10.3218 18.0782 11.5121 17.9946 12.8255C17.9946 13.1128 17.8691 13.3591 17.5765 13.318C17.4092 13.277 17.242 13.0718 17.0747 12.9076C17.0329 12.8665 17.0747 12.7845 17.0747 12.7434C16.8657 11.6763 16.573 11.389 15.4441 11.1837C15.1514 11.1427 14.9424 10.9785 14.9424 10.6912C14.9842 10.4039 15.1932 10.2808 15.4859 10.2808C15.5695 10.2808 15.6114 10.2808 15.5695 10.2808Z" fill="white"/>
</svg>
