<svg width="26" height="25" viewBox="0 0 26 25" fill="none" xmlns="http://www.w3.org/2000/svg">
<path d="M0.663818 25L2.42604 18.291C1.4392 16.4548 0.875285 14.4068 0.875285 12.3588C0.875285 5.50847 6.4439 0 13.2108 0C19.9778 0 25.5464 5.50847 25.5464 12.3588C25.5464 19.1384 20.0483 24.7175 13.2108 24.7175C11.1667 24.7175 9.19297 24.2232 7.36026 23.2345L0.663818 25ZM7.7127 20.6921L8.13564 20.9746C9.68639 21.8927 11.4486 22.387 13.2108 22.387C18.709 22.387 23.2203 17.8672 23.2203 12.3588C23.2203 6.85028 18.709 2.33051 13.2108 2.33051C7.7127 2.33051 3.20142 6.85028 3.20142 12.3588C3.20142 14.1949 3.69484 15.9605 4.68168 17.5141L4.96364 17.9379L3.97679 21.6808L7.7127 20.6921Z" fill="#0BE04F"/>
<path fill-rule="evenodd" clip-rule="evenodd" d="M17.7925 14.0534C17.2991 13.7709 16.5942 13.4178 16.0303 13.6296C15.5369 13.8415 15.2549 14.5477 14.9729 14.9008C14.832 15.1127 14.6205 15.1127 14.409 15.0421C12.7173 14.3359 11.378 13.2059 10.3912 11.6522C10.2502 11.4404 10.2502 11.2285 10.4617 11.0166C10.7436 10.6635 11.0961 10.3104 11.1665 9.81608C11.237 9.39235 11.0256 8.82738 10.8141 8.40365C10.6026 7.9093 10.3207 7.13247 9.75677 6.84998C9.26335 6.5675 8.62895 6.70874 8.20601 7.06185C7.50113 7.62682 7.14868 8.61552 7.14868 9.5336C7.14868 9.81608 7.21917 10.0279 7.21917 10.3104C7.36015 10.946 7.6421 11.511 7.99455 12.0053C8.20601 12.4291 8.48797 12.7822 8.76993 13.2059C9.68628 14.4771 10.8141 15.5364 12.1534 16.3839C12.7878 16.8076 13.5632 17.1607 14.2681 17.3726C15.1139 17.6551 15.8188 17.9376 16.7352 17.7963C17.6515 17.5844 18.5679 17.0195 18.9908 16.1014C19.1318 15.8189 19.1318 15.5364 19.0613 15.2539C19.0613 14.689 18.2859 14.3359 17.7925 14.0534Z" fill="#0BE04F"/>
</svg>
